<svg xmlns="http://www.w3.org/2000/svg" xmlns:xlink="http://www.w3.org/1999/xlink" version="1.1" width="1000" height="1000" viewBox="0 0 1000 1000" xml:space="preserve">
<desc>Created with Fabric.js 3.5.0</desc>
<defs>
</defs>
<rect x="0" y="0" width="100%" height="100%" fill="#ffffff"/>
<g transform="matrix(0.0979 0 0 -0.0979 500.1711 500.1663)" id="591978">
<path style="stroke: none; stroke-width: 1; stroke-dasharray: none; stroke-linecap: butt; stroke-dashoffset: 0; stroke-linejoin: miter; stroke-miterlimit: 4; is-custom-font: none; font-file-url: none; fill: rgb(0,0,0); fill-rule: nonzero; opacity: 1;" vector-effect="non-scaling-stroke" transform=" translate(-6735, -8025)" d="M 4760 12970 c -17 -17 -20 -33 -20 -104 l 0 -84 l -95 -4 c -82 -3 -97 -6 -117 -26 l -23 -23 l -3 -1189 l -2 -1188 l -28 -6 c -15 -3 -49 -8 -77 -12 c -120 -16 -309 -93 -462 -188 c -473 -293 -972 -839 -1335 -1461 c -48 -82 -91 -156 -95 -163 c -7 -11 -20 -11 -73 4 c -79 21 -233 24 -310 5 c -181 -44 -351 -179 -428 -341 c -51 -109 -66 -173 -66 -285 c 0 -112 15 -176 66 -285 c 57 -120 168 -231 288 -288 c 109 -51 173 -66 285 -66 c 112 0 176 15 285 66 c 120 57 231 168 288 288 c 22 47 46 110 53 140 c 18 75 16 231 -4 305 l -16 60 l 59 111 c 98 185 226 399 355 594 c 370 556 718 862 1066 935 c 39 8 88 15 110 15 l 39 0 l 2 -2300 l 3 -2299 l 23 -23 l 23 -23 l 574 -3 l 575 -2 l 0 -750 c 0 -419 -4 -750 -9 -750 c -24 0 -238 70 -416 136 c -286 105 -336 117 -465 109 c -237 -14 -335 -63 -439 -217 c -56 -84 -65 -119 -64 -263 c 0 -93 7 -158 22 -229 c 11 -54 21 -100 21 -102 c 0 -2 412 -4 915 -4 l 915 0 l 0 1035 l 0 1035 l 555 0 l 555 0 l 0 -1035 l 0 -1035 l 915 0 l 915 0 l 35 70 c 117 232 77 406 -140 609 c -88 82 -159 117 -270 132 c -49 6 -112 9 -141 5 c -28 -3 -156 -42 -283 -86 c -206 -71 -428 -137 -518 -155 l -33 -7 l 0 751 l 0 751 l 575 2 l 574 3 l 23 23 l 23 23 l 3 2307 l 2 2307 l 68 24 c 115 41 382 159 502 223 c 517 273 795 508 1128 950 c 80 107 247 350 297 433 c 9 16 15 16 75 -1 c 79 -21 233 -24 310 -5 c 181 44 351 179 428 341 c 51 109 66 173 66 285 c 0 112 -15 176 -66 285 c -57 120 -168 231 -288 288 c -109 51 -173 66 -285 66 c -112 0 -176 -15 -285 -66 c -120 -57 -231 -168 -288 -288 c -51 -109 -66 -173 -66 -285 c 0 -93 14 -169 45 -242 l 18 -42 l -83 -134 c -263 -427 -490 -679 -798 -885 c -98 -66 -301 -179 -415 -232 c -81 -38 -349 -150 -359 -150 c -2 0 -5 533 -6 1185 l -3 1184 l -23 23 c -20 20 -35 23 -117 26 l -95 4 l 0 84 c 0 71 -3 87 -20 104 c -20 20 -33 20 -1975 20 c -1942 0 -1955 0 -1975 -20 z m 2235 -3205 c 184 -39 308 -106 436 -234 c 275 -275 328 -681 132 -1016 c -61 -106 -192 -237 -298 -298 c -265 -155 -585 -155 -850 0 c -106 61 -237 192 -298 298 c -155 265 -155 585 0 850 c 61 106 192 237 298 298 c 175 103 395 141 580 102 z m 10 -2254 c 216 -44 400 -166 525 -346 c 341 -494 65 -1174 -525 -1296 c -582 -120 -1106 404 -986 986 c 94 455 536 749 986 656 z" stroke-linecap="round"/>
</g>
<g transform="matrix(1.8729 0 0 1.0524 512.3226 185.4152)" id="550699">
<path style="stroke: none; stroke-width: 1; stroke-dasharray: none; stroke-linecap: butt; stroke-dashoffset: 0; stroke-linejoin: miter; stroke-miterlimit: 4; is-custom-font: none; font-file-url: none; fill: rgb(255,51,51); fill-rule: nonzero; opacity: 1;" vector-effect="non-scaling-stroke" transform=" translate(-78.4998, -78.5)" d="M 78.5 0 C 52.9419 0 32.1166 35.2271 32.1166 78.5 C 32.1166 121.773 52.9419 157 78.5 157 C 104.058 157 124.883 121.773 124.883 78.5 C 124.883 35.2271 104.058 0 78.5 0 Z" stroke-linecap="round"/>
</g>
<g transform="matrix(1.8729 0 0 1.0524 512.3258 410.0188)" id="981111">
<path style="stroke: none; stroke-width: 1; stroke-dasharray: none; stroke-linecap: butt; stroke-dashoffset: 0; stroke-linejoin: miter; stroke-miterlimit: 4; is-custom-font: none; font-file-url: none; fill: rgb(252,238,33); fill-rule: nonzero; opacity: 1;" vector-effect="non-scaling-stroke" transform=" translate(-78.4998, -78.5)" d="M 78.5 0 C 52.9419 0 32.1166 35.2271 32.1166 78.5 C 32.1166 121.773 52.9419 157 78.5 157 C 104.058 157 124.883 121.773 124.883 78.5 C 124.883 35.2271 104.058 0 78.5 0 Z" stroke-linecap="round"/>
</g>
<g transform="matrix(1.9014 0 0 1.0684 511.0039 630.7633)" id="113368">
<path style="stroke: none; stroke-width: 1; stroke-dasharray: none; stroke-linecap: butt; stroke-dashoffset: 0; stroke-linejoin: miter; stroke-miterlimit: 4; is-custom-font: none; font-file-url: none; fill: rgb(0,146,69); fill-rule: nonzero; opacity: 1;" vector-effect="non-scaling-stroke" transform=" translate(-78.4998, -78.5)" d="M 78.5 0 C 52.9419 0 32.1166 35.2271 32.1166 78.5 C 32.1166 121.773 52.9419 157 78.5 157 C 104.058 157 124.883 121.773 124.883 78.5 C 124.883 35.2271 104.058 0 78.5 0 Z" stroke-linecap="round"/>
</g>
</svg>